{"title":"American Gothic 2016 S01E10 1080p AMZN WEBRip HEVC DD5.1 x265","uid":15702292,"size":733380359,"categoryP":"video","categoryS":"hd___tv_shows","magnet":"?xt=urn:btih:0195483270deeea98b99a44c25ba080238f6a71e&amp;dn=American+Gothic+2016+S01E10+1080p+AMZN+WEBRip+HEVC+DD5.1+x265&amp;tr=udp%3A%2F%2Ftracker.leechers-paradise.org%3A6969&amp;tr=udp%3A%2F%2Fzer0day.ch%3A1337&amp;tr=udp%3A%2F%2Fopen.demonii.com%3A1337&amp;tr=udp%3A%2F%2Ftracker.coppersurfer.tk%3A6969&amp;tr=udp%3A%2F%2Fexodus.desync.com%3A6969","seeders":1,"leechers":0,"uploader":"nayhtut","files":1,"time":1472493102,"description":"[Screenshots]\r\n \nhttps://s17.postimg.org/h6jmmv89b/American_Gothic_2016_S01_E10_The_Veteran_in_a_New.jpg \nhttps://s17.postimg.org/uoqiz5ken/American_Gothic_2016_S01_E10_The_Veteran_in_a_New.jpg \nhttps://s17.postimg.org/op2rvhzm7/American_Gothic_2016_S01_E10_The_Veteran_in_a_New.jpg\r\n\r\n\r\nSource:  American Gothic 2016 S01E10 The Veteran in a New Field 1080p AMZN WEBRip DD5.1 H.264.RTN (2.54 GB)\r\n\r\n\r\n__--__--__--__--__--__--__--__--__--__--__--__--__--\r\n\r\n\r\nComplete name                            : American.Gothic.2016.S01E10.The.Veteran.in.a.New.Field.1080p.AMZN.WEBRip.HEVC.DD5.1.x265.mkv\r\nFormat                                   : Matroska\r\nFormat version                           : Version 4 / Version 2\r\nFile size                                : 699 MiB\r\nDuration                                 : 42mn 11s\r\nOverall bit rate                         : 2 317 Kbps\r\nWriting application                      : Lavf57.25.100\r\nWriting library                          : Lavf57.25.100\r\n\r\nVideo\r\n\r\nID                                       : 1\r\nFormat                                   : V_MPEGH/ISO/HEVC\r\nCodec ID                                 : V_MPEGH/ISO/HEVC\r\nDuration                                 : 42mn 11s\r\nBit rate                                 : 1 887 Kbps\r\nWidth                                    : 1 920 pixels\r\nHeight                                   : 1 080 pixels\r\nDisplay aspect ratio                     : 16:9\r\nFrame rate                               : 25.000 fps\r\nBits/(Pixel*Frame)                       : 0.036\r\nStream size                              : 570 MiB (81%)\r\nWriting library                          : Lavc57.48.101 libx265\r\nLanguage                                 : English\r\nDefault                                  : Yes\r\nForced                                   : No\r\nDURATION                                 : 00:42:11.771000000\r\n\r\nAudio\r\n\r\nID                                       : 2\r\nFormat                                   : AC-3\r\nFormat/Info                              : Audio Coding 3\r\nMode extension                           : CM (complete main)\r\nFormat settings, Endianness              : Big\r\nCodec ID                                 : A_AC3\r\nDuration                                 : 42mn 11s\r\nBit rate mode                            : Constant\r\nBit rate                                 : 384 Kbps\r\nChannel(s)                               : 6 channels\r\nChannel positions                        : Front: L C R, Side: L R, LFE\r\nSampling rate                            : 48.0 KHz\r\nBit depth                                : 16 bits\r\nCompression mode                         : Lossy\r\nStream size                              : 116 MiB (17%)\r\nWriting library                          : Lavc57.24.102 ac3\r\nLanguage                                 : English\r\nDefault                                  : Yes\r\nForced                                   : No\r\nDURATION                                 : 00:42:11.775000000\r\n\r\nText\r\n\r\nID                                       : 3\r\nFormat                                   : ASS\r\nCodec ID                                 : S_TEXT/ASS\r\nCodec ID/Info                            : Advanced Sub Station Alpha\r\nCompression mode                         : Lossless\r\nWriting library                          : Lavc57.48.101 ssa\r\nLanguage                                 : English\r\nDefault                                  : No\r\nForced                                   : No\r\nDURATION                                 : 00:41:35.011000000\r\n\r\n__--__--__--__--__--__--__--__--__--__--__--__--__--\r\n \r\n\r\nIMDb: http://www.imdb.com/title/tt5257744\r\n\r\n\r\n__--__--__--__--__--__--__--__--__--__--__--__--__--\r\n\r\n\r\nAfter adding torrent with magnet link,\r\n\r\nplease add this  following trackers list to the torrent for better seeds.\r\n\r\n\r\nudp://tracker.coppersurfer.tk:6969/announce\r\n\r\nudp://tracker.opentrackr.org:1337/announce\r\n \nhttp://tracker.baravik.org:6970/announce\r\n \nhttp://tracker2.wasabii.com.tw:6969/announce\r\n\r\nudp://9.rarbg.me:2710/announce\r\n\r\n\r\n__--__--__--__--__--__--__--__--__--__--__--__--__--\r\n\r\n\r\nEnjoy!","torrent":{"xt":"urn:btih:0195483270deeea98b99a44c25ba080238f6a71e","amp;dn":"American+Gothic+2016+S01E10+1080p+AMZN+WEBRip+HEVC+DD5.1+x265","amp;tr":["udp%3A%2F%2Ftracker.leechers-paradise.org%3A6969","udp%3A%2F%2Fzer0day.ch%3A1337","udp%3A%2F%2Fopen.demonii.com%3A1337","udp%3A%2F%2Ftracker.coppersurfer.tk%3A6969","udp%3A%2F%2Fexodus.desync.com%3A6969"],"infoHash":"0195483270deeea98b99a44c25ba080238f6a71e","infoHashBuffer":{"type":"Buffer","data":[1,149,72,50,112,222,238,169,139,153,164,76,37,186,8,2,56,246,167,30]},"announce":[],"urlList":[]}}